<svg xmlns="http://www.w3.org/2000/svg" viewBox="0 0 36.31 40.44"><defs><style>.cls-1{fill:#fff;}</style></defs><title>ExplorerAsset 3</title><g id="Layer_2" data-name="Layer 2"><g id="_2nd_Drafts" data-name="2nd Drafts"><path class="cls-1" d="M29.84,30.11a1.79,1.79,0,1,1,1.81,1.81A1.78,1.78,0,0,1,29.84,30.11Z"/><path class="cls-1" d="M29.43,16a3.44,3.44,0,1,1,6.88,0,3.45,3.45,0,1,1-6.88,0Z"/><path class="cls-1" d="M13.15,5.34a5.38,5.38,0,0,1,10.77,0,5.38,5.38,0,1,1-10.77,0Z"/><path class="cls-1" d="M13.82,12.69A13.86,13.86,0,0,0,5,16V13.34a5,5,0,0,0-5-5V27.15A13.79,13.79,0,0,0,13.82,40.44c7.19,0,14-5.2,14-13.77A13.82,13.82,0,0,0,13.82,12.69Zm.28,22.75a8.94,8.94,0,0,1-9-8.81c-.12-5.42,4.24-8.94,9-8.94a8.86,8.86,0,0,1,8.83,8.94A8.75,8.75,0,0,1,14.1,35.44Z"/></g></g></svg>