<svg xmlns="http://www.w3.org/2000/svg" viewBox="0 0 219.9 40.44"><defs><style>.cls-1{fill:#8aa1bf;}</style></defs><title>Asset 2</title><g id="Layer_2" data-name="Layer 2"><g id="_2nd_Drafts" data-name="2nd Drafts"><path class="cls-1" d="M54.95,8.92h3.8v6.16h.08a8.09,8.09,0,0,1,6.88-3.88c5.7,0,9.28,4.94,9.28,10.34,0,5.65-3.38,10.67-9.45,10.67a8.15,8.15,0,0,1-6.71-3.75h-.08v3.08h-3.8ZM71.19,21.66c0-3.84-2.32-7.09-6.41-7.09-3.92,0-6.24,3.42-6.24,7.09s2.24,7.17,6.24,7.17S71.19,25.54,71.19,21.66Z"/><path class="cls-1" d="M82.66,31.53h-3.8V8.92h3.8Z"/><path class="cls-1" d="M91.69,11.78V22.71c0,3.16.8,5.95,4.56,5.95s4.56-2.78,4.56-5.95V11.78h3.8V23.13c0,5.4-2.53,9.07-8.35,9.07s-8.35-3.67-8.35-9.07V11.78Z"/><path class="cls-1" d="M113.71,15h.13a5.68,5.68,0,0,1,5.4-3.8,5.92,5.92,0,0,1,3.12,1l-1.73,3.46a3.32,3.32,0,0,0-2.32-.8c-4.09,0-4.6,3.8-4.6,7v9.7h-3.8V11.78h3.8Z"/><path class="cls-1" d="M124.17,8.92H128v6.16h.08a8.09,8.09,0,0,1,6.88-3.88c5.7,0,9.28,4.94,9.28,10.34,0,5.65-3.38,10.67-9.45,10.67a8.15,8.15,0,0,1-6.71-3.75H128v3.08h-3.8Zm16.24,12.74c0-3.84-2.32-7.09-6.41-7.09-3.92,0-6.25,3.42-6.25,7.09S130,28.83,134,28.83,140.41,25.54,140.41,21.66Z"/><path class="cls-1" d="M152.26,31.53h-3.8V15.33H146.4V11.78h2.07V8.24h3.8v3.55H156v3.54h-3.71Z"/><path class="cls-1" d="M176.56,31.53h-3.8V28.45h-.08A8.09,8.09,0,0,1,166,32.2c-6,0-9.45-5-9.45-10.67,0-5.4,3.59-10.34,9.32-10.34a8.08,8.08,0,0,1,6.83,3.88h.08V11.78h3.8ZM173,21.66c0-3.84-2.32-7.09-6.41-7.09-3.92,0-6.24,3.42-6.24,7.09s2.24,7.17,6.24,7.17S173,25.54,173,21.66Z"/><path class="cls-1" d="M185.29,14.44h.08a6.74,6.74,0,0,1,5.95-3.25c5.57,0,7,3.75,7,8.56V31.53h-3.8V20.22c0-3.38-.46-5.65-4.35-5.65-4.89,0-4.89,4.3-4.89,7.89v9.07h-3.8V11.78h3.8Z"/><path class="cls-1" d="M206.61,19.21,214,11.78h5L210.61,20l9.28,11.56H215l-7-9-1.31,1.31v7.68h-3.8V8.92h3.8Z"/><path class="cls-1" d="M29.84,30.11a1.79,1.79,0,1,1,1.81,1.81A1.78,1.78,0,0,1,29.84,30.11Z"/><path class="cls-1" d="M29.43,16a3.44,3.44,0,1,1,6.88,0,3.45,3.45,0,1,1-6.88,0Z"/><path class="cls-1" d="M13.15,5.34a5.38,5.38,0,0,1,10.77,0,5.38,5.38,0,1,1-10.77,0Z"/><path class="cls-1" d="M13.82,12.69A13.86,13.86,0,0,0,5,16V13.34a5,5,0,0,0-5-5V27.15A13.79,13.79,0,0,0,13.82,40.44c7.19,0,14-5.2,14-13.77A13.82,13.82,0,0,0,13.82,12.69Zm.28,22.75a8.94,8.94,0,0,1-9-8.81c-.12-5.42,4.24-8.94,9-8.94a8.86,8.86,0,0,1,8.83,8.94A8.75,8.75,0,0,1,14.1,35.44Z"/></g></g></svg>